{
  "accessors": [
    {
      "bufferView": 2,
      "componentType": 5126,
      "count": 4349,
      "max": [
        96.93280029296875,
        223.19940185546875,
        140.82870483398438
      ],
      "min": [
        -96.55280303955078,
        -223.5467987060547,
        17.492599487304688
      ],
      "type": "VEC3"
    },
    {
      "bufferView": 2,
      "byteOffset": 52188,
      "componentType": 5126,
      "count": 4349,
      "max": [
        1.0,
        0.9998252987861633,
        0.9999129772186279
      ],
      "min": [
        -1.0,
        -1.0,
        -0.9999996423721313
      ],
      "type": "VEC3"
    },
    {
      "bufferView": 3,
      "componentType": 5126,
      "count": 4349,
      "max": [
        0.9999977946281433,
        1.0,
        0.9999975562095642,
        1.0
      ],
      "min": [
        -0.9999717473983765,
        -0.9995678067207336,
        -0.9999989867210388,
        -1.0
      ],
      "type": "VEC4"
    },
    {
      "bufferView": 1,
      "componentType": 5126,
      "count": 4349,
      "max": [
        0.9961000084877014,
        0.98580002784729
      ],
      "min": [
        0.0038999998942017555,
        0.0038999998942017555
      ],
      "type": "VEC2"
    },
    {
      "bufferView": 0,
      "componentType": 5125,
      "count": 16569,
      "type": "SCALAR"
    },
    {
      "bufferView": 2,
      "byteOffset": 104376,
      "componentType": 5126,
      "count": 7020,
      "max": [
        88.20240020751953,
        215.65719604492188,
        134.4842987060547
      ],
      "min": [
        -87.82240295410156,
        -214.8997039794922,
        0.5273000001907349
      ],
      "type": "VEC3"
    },
    {
      "bufferView": 2,
      "byteOffset": 188616,
      "componentType": 5126,
      "count": 7020,
      "max": [
        1.0,
        1.0,
        1.0
      ],
      "min": [
        -1.0,
        -1.0,
        -1.0
      ],
      "type": "VEC3"
    },
    {
      "bufferView": 3,
      "byteOffset": 69584,
      "componentType": 5126,
      "count": 7020,
      "max": [
        0.9999998807907104,
        0.999040424823761,
        0.9992614984512329,
        1.0
      ],
      "min": [
        -0.9999998807907104,
        -0.9999672770500183,
        -0.9999741315841675,
        -1.0
      ],
      "type": "VEC4"
    },
    {
      "bufferView": 1,
      "byteOffset": 34792,
      "componentType": 5126,
      "count": 7020,
      "max": [
        0.9143999814987183,
        0.9783999919891357
      ],
      "min": [
        0.0038999998942017555,
        0.0038999998942017555
      ],
      "type": "VEC2"
    },
    {
      "bufferView": 0,
      "byteOffset": 66276,
      "componentType": 5125,
      "count": 38772,
      "type": "SCALAR"
    }
  ],
  "asset": {
    "extras": {
      "author": "ROH3D (https://sketchfab.com/roh3d)",
      "license": "CC-BY-4.0 (http://creativecommons.org/licenses/by/4.0/)",
      "source": "https://sketchfab.com/3d-models/low-poly-car-bmw-e46-1998-d9bfd8126e754164b48ded833c017bbf",
      "title": "Low Poly Car - BMW E46 1998"
    },
    "generator": "Sketchfab-16.67.0",
    "version": "2.0"
  },
  "bufferViews": [
    {
      "buffer": 0,
      "byteLength": 221364,
      "name": "floatBufferViews",
      "target": 34963
    },
    {
      "buffer": 0,
      "byteLength": 90952,
      "byteOffset": 221364,
      "byteStride": 8,
      "name": "floatBufferViews",
      "target": 34962
    },
    {
      "buffer": 0,
      "byteLength": 272856,
      "byteOffset": 312316,
      "byteStride": 12,
      "name": "floatBufferViews",
      "target": 34962
    },
    {
      "buffer": 0,
      "byteLength": 181904,
      "byteOffset": 585172,
      "byteStride": 16,
      "name": "floatBufferViews",
      "target": 34962
    }
  ],
  "buffers": [
    {
      "byteLength": 767076,
      "uri": "scene.bin"
    }
  ],
  "images": [
    {
      "uri": "textures/Standard_00FD5B_baseColor.png"
    },
    {
      "uri": "textures/Standard_00FD5B_metallicRoughness.png"
    },
    {
      "uri": "textures/Standard_00FD5B_normal.png"
    }
  ],
  "materials": [
    {
      "alphaMode": "BLEND",
      "doubleSided": true,
      "name": "Standard_00FD5B",
      "normalTexture": {
        "index": 2
      },
      "pbrMetallicRoughness": {
        "baseColorTexture": {
          "index": 0
        },
        "metallicRoughnessTexture": {
          "index": 1
        }
      }
    }
  ],
  "meshes": [
    {
      "name": "Object_0",
      "primitives": [
        {
          "attributes": {
            "NORMAL": 1,
            "POSITION": 0,
            "TANGENT": 2,
            "TEXCOORD_0": 3
          },
          "indices": 4,
          "material": 0,
          "mode": 4
        }
      ]
    },
    {
      "name": "Object_1",
      "primitives": [
        {
          "attributes": {
            "NORMAL": 6,
            "POSITION": 5,
            "TANGENT": 7,
            "TEXCOORD_0": 8
          },
          "indices": 9,
          "material": 0,
          "mode": 4
        }
      ]
    }
  ],
  "nodes": [
    {
      "children": [
        1
      ],
      "matrix": [
        1.0,
        0.0,
        0.0,
        0.0,
        0.0,
        2.220446049250313e-16,
        -1.0,
        0.0,
        0.0,
        1.0,
        2.220446049250313e-16,
        0.0,
        0.0,
        0.0,
        0.0,
        1.0
      ],
      "name": "Sketchfab_model"
    },
    {
      "children": [
        2,
        3
      ],
      "name": "BMW_E46.obj.cleaner.materialmerger.gles"
    },
    {
      "mesh": 0,
      "name": "Object_2"
    },
    {
      "mesh": 1,
      "name": "Object_3"
    }
  ],
  "samplers": [
    {
      "magFilter": 9729,
      "minFilter": 9987,
      "wrapS": 10497,
      "wrapT": 10497
    }
  ],
  "scene": 0,
  "scenes": [
    {
      "name": "Sketchfab_Scene",
      "nodes": [
        0
      ]
    }
  ],
  "textures": [
    {
      "sampler": 0,
      "source": 0
    },
    {
      "sampler": 0,
      "source": 1
    },
    {
      "sampler": 0,
      "source": 2
    }
  ]
}
